<svg xmlns="http://www.w3.org/2000/svg" xmlns:xlink="http://www.w3.org/1999/xlink" width="149.167px" zoomAndPan="magnify" viewBox="0 0 810 809.999993" height="172.243px" preserveAspectRatio="xMidYMid meet" version="1.0"><defs><g/></defs><path fill="#fff7d3" d="M 506.117188 476.308594 C 836.742188 766.535156 218.367188 895.414062 361.128906 506.542969 C 218.367188 895.414062 -95.40625 347.179688 287.515625 377.914062 C -95.40625 347.179688 329.15625 -120.753906 387.152344 268.117188 C 329.15625 -120.753906 905.398438 138.246094 522.226562 328.839844 C 905.148438 138.492188 836.742188 766.535156 506.117188 476.308594 Z M 506.117188 476.308594 " fill-opacity="1" fill-rule="nonzero"/><path fill="#fff7d3" d="M 502.152344 398.484375 C 502.152344 399.863281 502.117188 401.242188 502.050781 402.617188 C 501.980469 403.996094 501.882812 405.371094 501.746094 406.742188 C 501.609375 408.117188 501.441406 409.484375 501.238281 410.847656 C 501.035156 412.210938 500.800781 413.570312 500.53125 414.921875 C 500.261719 416.277344 499.960938 417.621094 499.625 418.960938 C 499.289062 420.296875 498.921875 421.625 498.523438 422.945312 C 498.121094 424.265625 497.691406 425.574219 497.226562 426.871094 C 496.761719 428.171875 496.265625 429.457031 495.738281 430.730469 C 495.210938 432.003906 494.652344 433.265625 494.0625 434.511719 C 493.472656 435.757812 492.851562 436.992188 492.203125 438.207031 C 491.550781 439.421875 490.871094 440.621094 490.164062 441.804688 C 489.453125 442.988281 488.714844 444.152344 487.949219 445.300781 C 487.183594 446.445312 486.390625 447.574219 485.566406 448.683594 C 484.746094 449.789062 483.898438 450.875 483.023438 451.941406 C 482.148438 453.007812 481.25 454.050781 480.320312 455.074219 C 479.394531 456.097656 478.445312 457.09375 477.46875 458.070312 C 476.496094 459.046875 475.496094 459.996094 474.472656 460.921875 C 473.453125 461.847656 472.410156 462.75 471.34375 463.625 C 470.277344 464.5 469.191406 465.347656 468.082031 466.167969 C 466.972656 466.988281 465.847656 467.785156 464.699219 468.550781 C 463.554688 469.316406 462.390625 470.054688 461.207031 470.761719 C 460.023438 471.472656 458.824219 472.152344 457.605469 472.800781 C 456.390625 473.449219 455.160156 474.070312 453.914062 474.660156 C 452.667969 475.25 451.40625 475.808594 450.132812 476.335938 C 448.859375 476.863281 447.570312 477.359375 446.273438 477.824219 C 444.972656 478.289062 443.664062 478.722656 442.34375 479.121094 C 441.027344 479.523438 439.695312 479.890625 438.359375 480.226562 C 437.019531 480.5625 435.675781 480.863281 434.324219 481.132812 C 432.972656 481.402344 431.613281 481.636719 430.25 481.839844 C 428.882812 482.042969 427.515625 482.210938 426.144531 482.34375 C 424.769531 482.480469 423.394531 482.582031 422.019531 482.648438 C 420.640625 482.71875 419.261719 482.75 417.882812 482.75 C 416.503906 482.75 415.125 482.71875 413.75 482.648438 C 412.371094 482.582031 410.996094 482.480469 409.625 482.34375 C 408.25 482.210938 406.882812 482.042969 405.519531 481.839844 C 404.15625 481.636719 402.796875 481.402344 401.445312 481.132812 C 400.089844 480.863281 398.746094 480.5625 397.410156 480.226562 C 396.070312 479.890625 394.742188 479.523438 393.421875 479.121094 C 392.101562 478.722656 390.792969 478.289062 389.496094 477.824219 C 388.195312 477.359375 386.910156 476.863281 385.636719 476.335938 C 384.363281 475.808594 383.101562 475.25 381.855469 474.660156 C 380.609375 474.070312 379.375 473.449219 378.160156 472.800781 C 376.945312 472.152344 375.746094 471.472656 374.5625 470.761719 C 373.378906 470.054688 372.214844 469.316406 371.066406 468.550781 C 369.921875 467.785156 368.792969 466.988281 367.6875 466.167969 C 366.578125 465.347656 365.492188 464.5 364.425781 463.625 C 363.359375 462.75 362.316406 461.847656 361.292969 460.921875 C 360.269531 459.996094 359.273438 459.046875 358.296875 458.070312 C 357.324219 457.09375 356.371094 456.097656 355.445312 455.074219 C 354.519531 454.050781 353.617188 453.007812 352.746094 451.941406 C 351.871094 450.875 351.019531 449.789062 350.199219 448.683594 C 349.378906 447.574219 348.585938 446.445312 347.816406 445.300781 C 347.050781 444.152344 346.3125 442.988281 345.605469 441.804688 C 344.894531 440.621094 344.214844 439.421875 343.566406 438.207031 C 342.917969 436.992188 342.296875 435.757812 341.707031 434.511719 C 341.117188 433.265625 340.558594 432.003906 340.03125 430.730469 C 339.503906 429.457031 339.007812 428.171875 338.542969 426.871094 C 338.078125 425.574219 337.644531 424.265625 337.246094 422.945312 C 336.84375 421.625 336.476562 420.296875 336.140625 418.960938 C 335.804688 417.621094 335.503906 416.277344 335.234375 414.921875 C 334.964844 413.570312 334.730469 412.210938 334.527344 410.847656 C 334.324219 409.484375 334.15625 408.117188 334.023438 406.742188 C 333.886719 405.371094 333.785156 403.996094 333.71875 402.617188 C 333.648438 401.242188 333.617188 399.863281 333.617188 398.484375 C 333.617188 397.105469 333.648438 395.726562 333.71875 394.347656 C 333.785156 392.972656 333.886719 391.597656 334.023438 390.222656 C 334.15625 388.851562 334.324219 387.484375 334.527344 386.117188 C 334.730469 384.753906 334.964844 383.394531 335.234375 382.042969 C 335.503906 380.691406 335.804688 379.347656 336.140625 378.007812 C 336.476562 376.671875 336.84375 375.34375 337.246094 374.023438 C 337.644531 372.703125 338.078125 371.394531 338.542969 370.09375 C 339.007812 368.796875 339.503906 367.511719 340.03125 366.234375 C 340.558594 364.960938 341.117188 363.703125 341.707031 362.453125 C 342.296875 361.207031 342.917969 359.976562 343.566406 358.761719 C 344.214844 357.542969 344.894531 356.34375 345.605469 355.160156 C 346.3125 353.980469 347.050781 352.8125 347.816406 351.667969 C 348.585938 350.519531 349.378906 349.394531 350.199219 348.285156 C 351.019531 347.179688 351.871094 346.089844 352.746094 345.023438 C 353.617188 343.957031 354.519531 342.914062 355.445312 341.894531 C 356.371094 340.871094 357.324219 339.871094 358.296875 338.898438 C 359.273438 337.921875 360.269531 336.972656 361.292969 336.046875 C 362.316406 335.121094 363.359375 334.21875 364.425781 333.34375 C 365.492188 332.46875 366.578125 331.621094 367.6875 330.800781 C 368.792969 329.976562 369.921875 329.183594 371.066406 328.417969 C 372.214844 327.652344 373.378906 326.914062 374.5625 326.203125 C 375.746094 325.496094 376.945312 324.816406 378.160156 324.167969 C 379.375 323.515625 380.609375 322.894531 381.855469 322.308594 C 383.101562 321.71875 384.363281 321.160156 385.636719 320.628906 C 386.910156 320.101562 388.195312 319.605469 389.496094 319.140625 C 390.792969 318.675781 392.101562 318.246094 393.421875 317.84375 C 394.742188 317.445312 396.070312 317.078125 397.410156 316.742188 C 398.746094 316.40625 400.089844 316.105469 401.445312 315.835938 C 402.796875 315.566406 404.15625 315.332031 405.519531 315.128906 C 406.882812 314.925781 408.25 314.757812 409.625 314.621094 C 410.996094 314.488281 412.371094 314.386719 413.75 314.316406 C 415.125 314.25 416.503906 314.214844 417.882812 314.214844 C 419.261719 314.214844 420.640625 314.25 422.019531 314.316406 C 423.394531 314.386719 424.769531 314.488281 426.144531 314.621094 C 427.515625 314.757812 428.882812 314.925781 430.25 315.128906 C 431.613281 315.332031 432.972656 315.566406 434.324219 315.835938 C 435.675781 316.105469 437.019531 316.40625 438.359375 316.742188 C 439.695312 317.078125 441.027344 317.445312 442.34375 317.84375 C 443.664062 318.246094 444.972656 318.675781 446.273438 319.140625 C 447.570312 319.605469 448.859375 320.101562 450.132812 320.628906 C 451.40625 321.160156 452.667969 321.71875 453.914062 322.308594 C 455.160156 322.894531 456.390625 323.515625 457.605469 324.167969 C 458.824219 324.816406 460.023438 325.496094 461.207031 326.203125 C 462.390625 326.914062 463.554688 327.652344 464.699219 328.417969 C 465.847656 329.183594 466.972656 329.976562 468.082031 330.800781 C 469.191406 331.621094 470.277344 332.46875 471.34375 333.34375 C 472.410156 334.21875 473.453125 335.121094 474.472656 336.046875 C 475.496094 336.972656 476.496094 337.921875 477.46875 338.898438 C 478.445312 339.871094 479.394531 340.871094 480.320312 341.894531 C 481.25 342.914062 482.148438 343.957031 483.023438 345.023438 C 483.898438 346.089844 484.746094 347.179688 485.566406 348.285156 C 486.390625 349.394531 487.183594 350.519531 487.949219 351.667969 C 488.714844 352.8125 489.453125 353.980469 490.164062 355.160156 C 490.871094 356.34375 491.550781 357.542969 492.203125 358.761719 C 492.851562 359.976562 493.472656 361.207031 494.0625 362.453125 C 494.652344 363.703125 495.210938 364.960938 495.738281 366.234375 C 496.265625 367.511719 496.761719 368.796875 497.226562 370.09375 C 497.691406 371.394531 498.121094 372.703125 498.523438 374.023438 C 498.921875 375.34375 499.289062 376.671875 499.625 378.007812 C 499.960938 379.347656 500.261719 380.691406 500.53125 382.042969 C 500.800781 383.394531 501.035156 384.753906 501.238281 386.117188 C 501.441406 387.484375 501.609375 388.851562 501.746094 390.222656 C 501.882812 391.597656 501.980469 392.972656 502.050781 394.347656 C 502.117188 395.726562 502.152344 397.105469 502.152344 398.484375 Z M 502.152344 398.484375 " fill-opacity="1" fill-rule="nonzero"/><g fill="#cfc494" fill-opacity="1"><g transform="translate(272.088213, 459.781293)"><g><path d="M 133.546875 -54.765625 C 133.546875 -60.785156 132.382812 -66.378906 130.0625 -71.546875 C 127.738281 -76.710938 124.640625 -81.445312 120.765625 -85.75 C 116.890625 -90.0625 112.539062 -93.8125 107.71875 -97 C 102.894531 -100.1875 98.070312 -102.8125 93.25 -104.875 L 54.25 -90.15625 L 54.25 -30.484375 C 54.25 -26.523438 54.503906 -23.335938 55.015625 -20.921875 C 55.535156 -18.515625 56.523438 -16.617188 57.984375 -15.234375 C 59.453125 -13.859375 61.476562 -12.953125 64.0625 -12.515625 C 66.644531 -12.085938 70.085938 -11.875 74.390625 -11.875 C 81.972656 -11.875 89.335938 -12.5625 96.484375 -13.9375 C 103.628906 -15.320312 109.957031 -17.691406 115.46875 -21.046875 C 120.976562 -24.410156 125.367188 -28.800781 128.640625 -34.21875 C 131.910156 -39.644531 133.546875 -46.492188 133.546875 -54.765625 Z M 81.625 -158.09375 C 78.175781 -158.09375 75.289062 -158.003906 72.96875 -157.828125 C 70.644531 -157.660156 68.535156 -157.398438 66.640625 -157.046875 C 64.054688 -156.703125 61.945312 -156.226562 60.3125 -155.625 C 58.675781 -155.03125 57.425781 -154 56.5625 -152.53125 C 55.707031 -151.070312 55.109375 -149.003906 54.765625 -146.328125 C 54.421875 -143.660156 54.25 -140.085938 54.25 -135.609375 L 54.25 -102.296875 C 62.6875 -104.703125 70.5625 -107.367188 77.875 -110.296875 C 85.195312 -113.222656 91.570312 -116.40625 97 -119.84375 C 102.425781 -123.289062 106.726562 -126.953125 109.90625 -130.828125 C 113.09375 -134.703125 114.6875 -138.796875 114.6875 -143.109375 C 114.6875 -146.203125 113.828125 -148.738281 112.109375 -150.71875 C 110.390625 -152.707031 108.019531 -154.21875 105 -155.25 C 101.988281 -156.28125 98.457031 -157.007812 94.40625 -157.4375 C 90.363281 -157.875 86.101562 -158.09375 81.625 -158.09375 Z M 106.421875 -169.96875 C 111.765625 -169.96875 116.800781 -169.664062 121.53125 -169.0625 C 126.269531 -168.457031 130.40625 -167.335938 133.9375 -165.703125 C 137.46875 -164.066406 140.265625 -161.828125 142.328125 -158.984375 C 144.398438 -156.148438 145.4375 -152.492188 145.4375 -148.015625 C 145.4375 -144.398438 144.832031 -141.128906 143.625 -138.203125 C 142.414062 -135.273438 140.347656 -132.390625 137.421875 -129.546875 C 134.492188 -126.703125 130.53125 -123.726562 125.53125 -120.625 C 120.539062 -117.53125 114.34375 -114.003906 106.9375 -110.046875 C 115.03125 -107.285156 122.519531 -104.007812 129.40625 -100.21875 C 136.300781 -96.4375 142.242188 -92.085938 147.234375 -87.171875 C 152.234375 -82.265625 156.109375 -76.796875 158.859375 -70.765625 C 161.617188 -64.742188 163 -58.203125 163 -51.140625 C 163 -40.984375 160.890625 -32.632812 156.671875 -26.09375 C 152.453125 -19.550781 146.507812 -14.34375 138.84375 -10.46875 C 131.175781 -6.59375 122.046875 -3.878906 111.453125 -2.328125 C 100.867188 -0.773438 89.203125 0 76.453125 0 L 9.046875 0 L 9.046875 -2.328125 C 12.828125 -2.835938 15.835938 -3.910156 18.078125 -5.546875 C 20.316406 -7.179688 21.992188 -9.25 23.109375 -11.75 C 24.234375 -14.25 24.96875 -17.003906 25.3125 -20.015625 C 25.65625 -23.035156 25.828125 -26.179688 25.828125 -29.453125 L 25.828125 -138.96875 C 25.828125 -142.414062 25.65625 -145.734375 25.3125 -148.921875 C 24.96875 -152.109375 24.191406 -154.988281 22.984375 -157.5625 C 21.785156 -160.144531 20.109375 -162.34375 17.953125 -164.15625 C 15.796875 -165.96875 12.828125 -167.128906 9.046875 -167.640625 L 9.046875 -169.96875 Z M 106.421875 -169.96875 "/></g></g></g><g fill="#cfc494" fill-opacity="1"><g transform="translate(527.811868, 350.208557)"><g><path d="M -133.546875 54.765625 C -133.546875 60.785156 -132.382812 66.378906 -130.0625 71.546875 C -127.738281 76.710938 -124.640625 81.445312 -120.765625 85.75 C -116.890625 90.0625 -112.539062 93.8125 -107.71875 97 C -102.894531 100.1875 -98.070312 102.8125 -93.25 104.875 L -54.25 90.15625 L -54.25 30.484375 C -54.25 26.523438 -54.503906 23.335938 -55.015625 20.921875 C -55.535156 18.515625 -56.523438 16.617188 -57.984375 15.234375 C -59.453125 13.859375 -61.476562 12.953125 -64.0625 12.515625 C -66.644531 12.085938 -70.085938 11.875 -74.390625 11.875 C -81.972656 11.875 -89.335938 12.5625 -96.484375 13.9375 C -103.628906 15.320312 -109.957031 17.691406 -115.46875 21.046875 C -120.976562 24.410156 -125.367188 28.800781 -128.640625 34.21875 C -131.910156 39.644531 -133.546875 46.492188 -133.546875 54.765625 Z M -81.625 158.09375 C -78.175781 158.09375 -75.289062 158.003906 -72.96875 157.828125 C -70.644531 157.660156 -68.535156 157.398438 -66.640625 157.046875 C -64.054688 156.703125 -61.945312 156.226562 -60.3125 155.625 C -58.675781 155.03125 -57.425781 154 -56.5625 152.53125 C -55.707031 151.070312 -55.109375 149.003906 -54.765625 146.328125 C -54.421875 143.660156 -54.25 140.085938 -54.25 135.609375 L -54.25 102.296875 C -62.6875 104.703125 -70.5625 107.367188 -77.875 110.296875 C -85.195312 113.222656 -91.570312 116.40625 -97 119.84375 C -102.425781 123.289062 -106.726562 126.953125 -109.90625 130.828125 C -113.09375 134.703125 -114.6875 138.796875 -114.6875 143.109375 C -114.6875 146.203125 -113.828125 148.738281 -112.109375 150.71875 C -110.390625 152.707031 -108.019531 154.21875 -105 155.25 C -101.988281 156.28125 -98.457031 157.007812 -94.40625 157.4375 C -90.363281 157.875 -86.101562 158.09375 -81.625 158.09375 Z M -106.421875 169.96875 C -111.765625 169.96875 -116.800781 169.664062 -121.53125 169.0625 C -126.269531 168.457031 -130.40625 167.335938 -133.9375 165.703125 C -137.46875 164.066406 -140.265625 161.828125 -142.328125 158.984375 C -144.398438 156.148438 -145.4375 152.492188 -145.4375 148.015625 C -145.4375 144.398438 -144.832031 141.128906 -143.625 138.203125 C -142.414062 135.273438 -140.347656 132.390625 -137.421875 129.546875 C -134.492188 126.703125 -130.53125 123.726562 -125.53125 120.625 C -120.539062 117.53125 -114.34375 114.003906 -106.9375 110.046875 C -115.03125 107.285156 -122.519531 104.007812 -129.40625 100.21875 C -136.300781 96.4375 -142.242188 92.085938 -147.234375 87.171875 C -152.234375 82.265625 -156.109375 76.796875 -158.859375 70.765625 C -161.617188 64.742188 -163 58.203125 -163 51.140625 C -163 40.984375 -160.890625 32.632812 -156.671875 26.09375 C -152.453125 19.550781 -146.507812 14.34375 -138.84375 10.46875 C -131.175781 6.59375 -122.046875 3.878906 -111.453125 2.328125 C -100.867188 0.773438 -89.203125 0 -76.453125 0 L -9.046875 0 L -9.046875 2.328125 C -12.828125 2.835938 -15.835938 3.910156 -18.078125 5.546875 C -20.316406 7.179688 -21.992188 9.25 -23.109375 11.75 C -24.234375 14.25 -24.96875 17.003906 -25.3125 20.015625 C -25.65625 23.035156 -25.828125 26.179688 -25.828125 29.453125 L -25.828125 138.96875 C -25.828125 142.414062 -25.65625 145.734375 -25.3125 148.921875 C -24.96875 152.109375 -24.191406 154.988281 -22.984375 157.5625 C -21.785156 160.144531 -20.109375 162.34375 -17.953125 164.15625 C -15.796875 165.96875 -12.828125 167.128906 -9.046875 167.640625 L -9.046875 169.96875 Z M -106.421875 169.96875 "/></g></g></g></svg>
